<?xml version="1.0" encoding="UTF-8" standalone="no"?>
<!-- Created with Inkscape (http://www.inkscape.org/) -->

<svg
   width="60.823948mm"
   height="53.093971mm"
   viewBox="0 0 60.823949 53.093971"
   version="1.1"
   id="svg1"
   inkscape:version="1.3 (0e150ed6c4, 2023-07-21)"
   sodipodi:docname="vector.hand.svg"
   xml:space="preserve"
   xmlns:inkscape="http://www.inkscape.org/namespaces/inkscape"
   xmlns:sodipodi="http://sodipodi.sourceforge.net/DTD/sodipodi-0.dtd"
   xmlns="http://www.w3.org/2000/svg"
   xmlns:svg="http://www.w3.org/2000/svg"><sodipodi:namedview
     id="namedview1"
     pagecolor="#ffffff"
     bordercolor="#000000"
     borderopacity="0.25"
     inkscape:showpageshadow="2"
     inkscape:pageopacity="0.0"
     inkscape:pagecheckerboard="0"
     inkscape:deskcolor="#d1d1d1"
     inkscape:document-units="mm"
     inkscape:zoom="2.8970538"
     inkscape:cx="63.340211"
     inkscape:cy="124.43676"
     inkscape:window-width="1920"
     inkscape:window-height="1009"
     inkscape:window-x="1432"
     inkscape:window-y="-8"
     inkscape:window-maximized="1"
     inkscape:current-layer="layer1"
     showgrid="false" /><defs
     id="defs1"><marker
       style="overflow:visible"
       id="marker21"
       refX="0"
       refY="0"
       orient="auto-start-reverse"
       inkscape:stockid="Triangle arrow"
       markerWidth="1"
       markerHeight="1"
       viewBox="0 0 1 1"
       inkscape:isstock="true"
       inkscape:collect="always"
       preserveAspectRatio="xMidYMid"><path
         transform="scale(0.5)"
         style="fill:context-stroke;fill-rule:evenodd;stroke:context-stroke;stroke-width:1pt"
         d="M 5.77,0 -2.88,5 V -5 Z"
         id="path21" /></marker><marker
       style="overflow:visible"
       id="marker19"
       refX="0"
       refY="0"
       orient="auto-start-reverse"
       inkscape:stockid="Triangle arrow"
       markerWidth="1"
       markerHeight="1"
       viewBox="0 0 1 1"
       inkscape:isstock="true"
       inkscape:collect="always"
       preserveAspectRatio="xMidYMid"><path
         transform="scale(0.5)"
         style="fill:context-stroke;fill-rule:evenodd;stroke:context-stroke;stroke-width:1pt"
         d="M 5.77,0 -2.88,5 V -5 Z"
         id="path19" /></marker><marker
       style="overflow:visible"
       id="Triangle"
       refX="0"
       refY="0"
       orient="auto-start-reverse"
       inkscape:stockid="Triangle arrow"
       markerWidth="1"
       markerHeight="1"
       viewBox="0 0 1 1"
       inkscape:isstock="true"
       inkscape:collect="always"
       preserveAspectRatio="xMidYMid"><path
         transform="scale(0.5)"
         style="fill:context-stroke;fill-rule:evenodd;stroke:context-stroke;stroke-width:1pt"
         d="M 5.77,0 -2.88,5 V -5 Z"
         id="path135" /></marker><clipPath
       clipPathUnits="userSpaceOnUse"
       id="clipPath5"><g
         id="g7"
         transform="translate(6.065308,-63.774908)"><path
           d="m 80.837718,63.610272 c -0.193813,0.0079 -0.328662,0.04548 -0.328662,0.04548 -0.06937,-0.02332 -0.144112,-0.02117 -0.222725,0.0046 -0.07861,0.02582 -0.161065,0.075 -0.245463,0.145728 -0.0844,0.07073 -0.170624,0.162991 -0.257349,0.274402 -0.08673,0.11141 -0.173824,0.242296 -0.259416,0.390157 -0.08559,0.147861 -0.169631,0.312912 -0.25063,0.492993 -0.081,0.180082 -0.159079,0.374837 -0.232028,0.58291 -0.07295,0.208073 -0.141133,0.429107 -0.202571,0.660942 -0.06144,0.231835 -0.115796,0.474685 -0.162264,0.726054 -0.04689,0.253672 -0.08331,0.501045 -0.108004,0.747758 -0.02469,0.246712 -0.03815,0.492693 -0.03876,0.74259 -6.13e-4,0.249897 0.01134,0.504168 0.03669,0.767395 0.02535,0.263227 0.06411,0.535471 0.117305,0.822172 0.0532,0.286701 0.121196,0.587635 0.204122,0.907955 0.08293,0.32032 0.181052,0.660144 0.29559,1.024227 0.229075,0.728166 0.523053,1.554105 0.889868,2.518192 0.666809,1.752549 1.212329,3.245721 1.212329,3.318661 0,0.02197 -0.06244,0.03171 -0.178284,0.02997 -0.11584,-0.0017 -0.285072,-0.01484 -0.497127,-0.03721 -0.42411,-0.04472 -1.020814,-0.127467 -1.71204,-0.236161 -0.691227,-0.108694 -1.476549,-0.243215 -2.277897,-0.391191 -0.801349,-0.147975 -1.618506,-0.309752 -2.372982,-0.472322 -0.662355,-0.142721 -1.61861,-0.395093 -2.62568,-0.68678 -1.00707,-0.291687 -2.064961,-0.622586 -2.93057,-0.922424 -0.440531,-0.152595 -0.861283,-0.281558 -1.262455,-0.390157 -0.401173,-0.1086 -0.782785,-0.196872 -1.14515,-0.267684 -0.362365,-0.07081 -0.705804,-0.124063 -1.029912,-0.163298 -0.324107,-0.03924 -0.629305,-0.06416 -0.915706,-0.07803 -0.286401,-0.01387 -0.553807,-0.01666 -0.803052,-0.01137 -0.249245,0.0053 -0.480341,0.01845 -0.692981,0.03669 -0.425279,0.03648 -0.777722,0.09264 -1.059883,0.143661 -0.08969,0.01622 -0.169991,0.04595 -0.241329,0.08682 -0.07134,0.04086 -0.133574,0.09313 -0.187586,0.153479 -0.05401,0.06035 -0.09975,0.128935 -0.137459,0.203605 -0.03771,0.07467 -0.06747,0.155425 -0.08992,0.239262 -0.04489,0.167675 -0.06015,0.348541 -0.05013,0.521932 0.01003,0.173391 0.04509,0.339133 0.101802,0.476974 0.07348,0.1786 0.173567,0.391107 0.300241,0.618566 0.126673,0.22746 0.280148,0.469821 0.45992,0.707968 0.08989,0.119073 0.186245,0.237329 0.289388,0.351916 0.103143,0.114587 0.213308,0.225399 0.329695,0.330729 0.116388,0.10533 0.239349,0.204805 0.36897,0.296106 0.129621,0.0913 0.265918,0.174513 0.408761,0.247013 0.243705,0.123694 1.010352,0.448988 2.049487,0.873332 1.039135,0.424345 2.350578,0.947987 3.683496,1.468128 1.332914,0.52014 2.702634,1.083869 3.746542,1.538407 0.521953,0.227269 0.962023,0.427193 1.275891,0.580843 0.313867,0.15365 0.501539,0.260939 0.516764,0.302824 0.05081,0.139647 0.08231,0.262612 0.0925,0.377755 0.01019,0.115143 -0.0014,0.222385 -0.03772,0.329179 -0.03631,0.106793 -0.09734,0.213547 -0.186035,0.328145 -0.08869,0.114598 -0.204957,0.237132 -0.351917,0.375688 -0.293919,0.277112 -0.709969,0.61792 -1.272273,1.087789 -0.562305,0.469868 -1.270937,1.068494 -2.148707,1.860351 -1.78574,1.610961 -3.144403,2.839573 -4.179589,3.78995 -1.035186,0.950377 -1.746858,1.622737 -2.237073,2.121834 -0.245108,0.249548 -0.434982,0.455513 -0.582394,0.631486 -0.147411,0.175973 -0.252214,0.322058 -0.327628,0.450618 -0.07541,0.128561 -0.121264,0.239956 -0.150379,0.347266 -0.02911,0.10731 -0.04161,0.210237 -0.05013,0.322461 0.03063,0.291828 0.04111,0.494461 0.05478,0.645955 0.01367,0.151495 0.03068,0.252066 0.0739,0.340031 0.04321,0.08796 0.112764,0.163343 0.232027,0.264584 0.119263,0.10124 0.288384,0.228292 0.5302,0.419612 0.08734,0.0691 0.179362,0.129062 0.275952,0.179834 0.09659,0.05077 0.197388,0.09216 0.302824,0.125057 0.105436,0.03289 0.215305,0.05688 0.329179,0.07235 0.113874,0.01547 0.232078,0.02269 0.353984,0.02119 0.121905,-0.0015 0.247707,-0.01142 0.377237,-0.02946 0.129531,-0.01803 0.262711,-0.04444 0.399459,-0.07855 0.273496,-0.06821 0.561004,-0.167854 0.86093,-0.297656 0.299925,-0.129802 0.612244,-0.289706 0.935343,-0.477491 0.323099,-0.187785 0.656921,-0.403794 0.999939,-0.645955 0.343018,-0.242161 0.695035,-0.510638 1.054716,-0.803569 0.359681,-0.29293 0.727103,-0.610237 1.100191,-0.950329 l 2.073259,-1.889291 1.044897,1.187008 c 0.28745,0.32656 0.608375,0.642558 0.894002,0.888318 0.142814,0.12288 0.276754,0.228077 0.393258,0.308508 0.116505,0.08043 0.215911,0.136014 0.288871,0.159164 0.07651,0.02428 0.151847,0.06714 0.223243,0.124023 0.07139,0.05688 0.138923,0.128073 0.199471,0.209806 0.06055,0.08173 0.114163,0.174011 0.158129,0.272852 0.04397,0.09884 0.07809,0.203923 0.09974,0.312126 0.02063,0.103185 0.06207,0.222411 0.118856,0.349332 0.05679,0.126922 0.128937,0.261925 0.211873,0.396359 0.08294,0.134433 0.176365,0.268569 0.275436,0.394291 0.09907,0.125721 0.20383,0.242863 0.309025,0.343648 0.174764,0.167434 0.32474,0.297815 0.489892,0.402043 0.08258,0.05211 0.168795,0.09768 0.264067,0.137976 0.09527,0.04029 0.199258,0.07532 0.317293,0.106453 0.236069,0.06226 0.527674,0.108848 0.91519,0.150379 0.387515,0.04153 0.870856,0.07785 1.490348,0.119889 0.745794,0.05061 1.507806,0.130145 2.134237,0.217041 0.313215,0.04345 0.5924,0.08867 0.819071,0.133325 0.226671,0.04466 0.401004,0.08857 0.503329,0.129191 0.139281,0.05529 0.343853,0.117753 0.598929,0.185002 0.255077,0.06725 0.560543,0.139555 0.900204,0.213424 0.679321,0.147736 1.496598,0.303296 2.32699,0.44545 0.830391,0.142155 1.673764,0.270494 2.405538,0.364319 0.365886,0.04691 0.703972,0.08532 0.998388,0.112138 0.294416,0.02682 0.545173,0.04203 0.736906,0.04341 0.323692,0.0023 0.570875,0.0067 0.771012,0.02946 0.100069,0.01138 0.188663,0.02752 0.268718,0.05013 0.08006,0.0226 0.151817,0.052 0.219108,0.0899 0.06729,0.0379 0.129943,0.0843 0.19172,0.14159 0.06178,0.0573 0.122522,0.12587 0.186035,0.20671 0.127025,0.16168 0.264883,0.37403 0.44235,0.65422 0,0 0.145563,-0.10674 0.396358,-0.31057 0.250795,-0.20384 0.606917,-0.50437 1.028878,-0.891471 0.421961,-0.387048 0.90967,-0.860615 1.423169,-1.41025 0.25675,-0.274817 0.519744,-0.568969 0.784448,-0.880566 0.264704,-0.311598 0.531046,-0.640704 0.79375,-0.986503 0.262705,-0.3458 0.521811,-0.708299 0.772563,-1.085722 0.250752,-0.377423 0.493079,-0.769687 0.721919,-1.176156 0.22885,-0.406469 0.44432,-0.826935 0.64131,-1.259871 0.19698,-0.432937 0.37554,-0.878493 0.53071,-1.335319 0.15518,-0.456827 0.28676,-0.924877 0.39016,-1.403015 0.0517,-0.239069 0.0964,-0.48059 0.13333,-0.724504 0.0369,-0.243914 0.066,-0.490537 0.0868,-0.738973 0.0208,-0.248436 0.0337,-0.498739 0.0372,-0.751375 0.004,-0.252636 -0.002,-0.507264 -0.0171,-0.763778 -0.015,-0.256514 -0.0396,-0.515077 -0.0744,-0.775146 -0.0348,-0.26007 -0.0796,-0.521663 -0.13539,-0.784965 -0.0977,0.01868 -0.21806,0.02027 -0.35708,0.0062 -0.13902,-0.01407 -0.29687,-0.044 -0.47026,-0.08785 -0.17339,-0.04385 -0.36193,-0.101931 -0.56276,-0.172599 -0.20082,-0.07067 -0.41377,-0.154037 -0.635101,-0.248564 C 99.371116,85.160388 98.894314,84.926797 98.41127,84.660079 97.928227,84.393361 97.439,84.093997 96.971048,83.773312 96.797091,83.6541 96.540489,83.454292 96.226391,83.195569 95.912293,82.936847 95.540306,82.61919 95.134985,82.263843 94.324343,81.553149 93.380477,80.691975 92.498453,79.852104 90.734395,78.172362 88.529806,76.083651 87.599527,75.210527 87.344186,74.970873 87.100627,74.722078 86.867789,74.463802 86.634952,74.205527 86.413132,73.937705 86.20168,73.658684 85.990228,73.379662 85.788767,73.089828 85.597582,72.787936 85.406398,72.486044 85.225464,72.172244 85.053429,71.845358 84.881395,71.518471 84.718574,71.178237 84.56457,70.824231 84.410567,70.470225 84.264994,70.102122 84.127905,69.718872 83.990815,69.335623 83.862142,68.93718 83.740848,68.522563 83.619554,68.107946 83.505883,67.67721 83.399267,67.229102 c -0.07933,-0.333437 -0.16953,-0.66661 -0.264067,-0.983919 -0.09454,-0.31731 -0.193532,-0.618537 -0.291455,-0.887285 -0.09792,-0.268748 -0.194731,-0.505229 -0.28422,-0.692981 -0.08949,-0.187751 -0.171575,-0.32669 -0.240812,-0.401009 0,0 -0.08155,-0.0717 -0.222209,-0.172599 -0.140661,-0.100901 -0.340387,-0.231279 -0.576192,-0.349333 -0.117903,-0.05903 -0.240191,-0.09399 -0.357084,-0.113171 -0.116894,-0.01918 -0.228655,-0.02254 -0.325562,-0.0186 z"
           style="fill:#ffc28a;fill-opacity:1;stroke:#000000;stroke-width:0.3;stroke-dasharray:none;stroke-opacity:0.62362"
           id="path6" /><path
           d="m 101.83897,85.852261 c 0.0558,0.263302 0.10061,0.524895 0.13539,0.784965 0.0348,0.260069 0.0594,0.518632 0.0744,0.775146 0.015,0.256514 0.0206,0.511142 0.0171,0.763778 -0.004,0.252636 -0.0164,0.502939 -0.0372,0.751375 -0.0208,0.248436 -0.0499,0.495059 -0.0868,0.738973 -0.0369,0.243914 -0.0816,0.485435 -0.13333,0.724504 -0.1034,0.478138 -0.23498,0.946188 -0.39016,1.403015 -0.15517,0.456826 -0.33373,0.902382 -0.53071,1.335319 -0.19699,0.432936 -0.41246,0.853402 -0.64131,1.259871 -0.22884,0.406469 -0.471167,0.798733 -0.721919,1.176156 -0.250752,0.377423 -0.509858,0.739922 -0.772563,1.085722 -0.262704,0.345799 -0.529046,0.674905 -0.79375,0.986503 -0.264704,0.311597 -0.527698,0.605749 -0.784448,0.880566 -0.513499,0.549635 -1.001208,1.023202 -1.423169,1.41025 -0.421961,0.387056 -0.778083,0.687586 -1.028878,0.891426 -0.250795,0.20383 -0.396358,0.31057 -0.396358,0.31057 0.101697,0.16057 0.252042,0.35291 0.441833,0.56896 0.189792,0.21605 0.418915,0.45605 0.679029,0.71262 0.260114,0.25657 0.550848,0.52971 0.863513,0.81184 0.312665,0.28212 0.647326,0.57339 0.994771,0.86609 0.69489,0.5854 1.44148,1.17675 2.16886,1.71463 0.36369,0.26893 0.722999,0.52452 1.068159,0.75912 0.34515,0.2346 0.6761,0.44826 0.98495,0.63356 0.43656,0.26191 0.86251,0.49028 1.19682,0.6475 0.16716,0.0786 0.31138,0.13956 0.42272,0.17777 0.11133,0.0382 0.18997,0.0541 0.22531,0.0424 0.0353,-0.0117 0.1126,-0.13398 0.22221,-0.34468 0.1096,-0.2107 0.25139,-0.5098 0.41547,-0.8754 0.32816,-0.73119 0.74532,-1.72826 1.17254,-2.8143 0.85444,-2.17207 1.67788,-4.246772 1.82935,-4.610572 0.15146,-0.3638 0.39397,-0.959107 0.5395,-1.322917 0.14552,-0.363799 0.38365,-0.959107 0.52917,-1.322916 0.14552,-0.3638 0.35594,-0.899586 0.46715,-1.190625 0.11122,-0.29104 0.38291,-0.945889 0.6041,-1.455209 0.43573,-1.003312 1.07655,-2.597292 1.60817,-3.970817 0.26581,-0.686762 0.50432,-1.318359 0.67644,-1.793689 0.17213,-0.47533 0.27751,-0.794521 0.27751,-0.855762 0,-0.03565 -0.024,-0.06949 -0.0677,-0.100769 -0.0437,-0.03128 -0.10656,-0.0597 -0.18448,-0.08371 -0.15586,-0.04803 -0.37124,-0.07855 -0.60772,-0.0801 -0.23647,-0.0016 -0.87207,-0.08808 -1.70584,-0.226343 -0.83377,-0.138259 -1.86531,-0.328194 -2.89388,-0.536401 -1.02857,-0.208206 -2.03956,-0.38325 -2.83962,-0.497127 -0.40003,-0.05694 -0.74754,-0.09839 -1.01802,-0.12144 -0.27049,-0.02305 -0.4639,-0.02753 -0.55656,-0.0098 z"
           style="fill:#3366cc;fill-opacity:0.701987;stroke:#003399;stroke-width:0.1;stroke-linejoin:round;stroke-opacity:0.62362;paint-order:markers stroke fill"
           id="path7" /></g></clipPath><marker
       style="overflow:visible"
       id="Triangle-8"
       refX="0"
       refY="0"
       orient="auto-start-reverse"
       inkscape:stockid="Triangle arrow"
       markerWidth="1"
       markerHeight="1"
       viewBox="0 0 1 1"
       inkscape:isstock="true"
       inkscape:collect="always"
       preserveAspectRatio="xMidYMid"><path
         transform="scale(0.5)"
         style="fill:context-stroke;fill-rule:evenodd;stroke:context-stroke;stroke-width:1pt"
         d="M 5.77,0 -2.88,5 V -5 Z"
         id="path135-7" /></marker><marker
       style="overflow:visible"
       id="Triangle-8-2"
       refX="0"
       refY="0"
       orient="auto-start-reverse"
       inkscape:stockid="Triangle arrow"
       markerWidth="1"
       markerHeight="1"
       viewBox="0 0 1 1"
       inkscape:isstock="true"
       inkscape:collect="always"
       preserveAspectRatio="xMidYMid"><path
         transform="scale(0.5)"
         style="fill:context-stroke;fill-rule:evenodd;stroke:context-stroke;stroke-width:1pt"
         d="M 5.77,0 -2.88,5 V -5 Z"
         id="path135-7-0" /></marker><marker
       style="overflow:visible"
       id="Triangle-8-7"
       refX="0"
       refY="0"
       orient="auto-start-reverse"
       inkscape:stockid="Triangle arrow"
       markerWidth="1"
       markerHeight="1"
       viewBox="0 0 1 1"
       inkscape:isstock="true"
       inkscape:collect="always"
       preserveAspectRatio="xMidYMid"><path
         transform="scale(0.5)"
         style="fill:context-stroke;fill-rule:evenodd;stroke:context-stroke;stroke-width:1pt"
         d="M 5.77,0 -2.88,5 V -5 Z"
         id="path135-7-8" /></marker><marker
       style="overflow:visible"
       id="Triangle-8-7-5"
       refX="0"
       refY="0"
       orient="auto-start-reverse"
       inkscape:stockid="Triangle arrow"
       markerWidth="1"
       markerHeight="1"
       viewBox="0 0 1 1"
       inkscape:isstock="true"
       inkscape:collect="always"
       preserveAspectRatio="xMidYMid"><path
         transform="scale(0.5)"
         style="fill:context-stroke;fill-rule:evenodd;stroke:context-stroke;stroke-width:1pt"
         d="M 5.77,0 -2.88,5 V -5 Z"
         id="path135-7-8-7" /></marker></defs><g
     inkscape:label="Calque 1"
     inkscape:groupmode="layer"
     id="layer1"
     transform="translate(-21.039918,-56.833588)"><g
       id="g5"
       transform="translate(-29.898974,1.8082104)"><path
         d="m 80.837718,63.610272 c -0.193813,0.0079 -0.328662,0.04548 -0.328662,0.04548 -0.06937,-0.02332 -0.144112,-0.02117 -0.222725,0.0046 -0.07861,0.02582 -0.161065,0.075 -0.245463,0.145728 -0.0844,0.07073 -0.170624,0.162991 -0.257349,0.274402 -0.08673,0.11141 -0.173824,0.242296 -0.259416,0.390157 -0.08559,0.147861 -0.169631,0.312912 -0.25063,0.492993 -0.081,0.180082 -0.159079,0.374837 -0.232028,0.58291 -0.07295,0.208073 -0.141133,0.429107 -0.202571,0.660942 -0.06144,0.231835 -0.115796,0.474685 -0.162264,0.726054 -0.04689,0.253672 -0.08331,0.501045 -0.108004,0.747758 -0.02469,0.246712 -0.03815,0.492693 -0.03876,0.74259 -6.13e-4,0.249897 0.01134,0.504168 0.03669,0.767395 0.02535,0.263227 0.06411,0.535471 0.117305,0.822172 0.0532,0.286701 0.121196,0.587635 0.204122,0.907955 0.08293,0.32032 0.181052,0.660144 0.29559,1.024227 0.229075,0.728166 0.523053,1.554105 0.889868,2.518192 0.666809,1.752549 1.212329,3.245721 1.212329,3.318661 0,0.02197 -0.06244,0.03171 -0.178284,0.02997 -0.11584,-0.0017 -0.285072,-0.01484 -0.497127,-0.03721 -0.42411,-0.04472 -1.020814,-0.127467 -1.71204,-0.236161 -0.691227,-0.108694 -1.476549,-0.243215 -2.277897,-0.391191 -0.801349,-0.147975 -1.618506,-0.309752 -2.372982,-0.472322 -0.662355,-0.142721 -1.61861,-0.395093 -2.62568,-0.68678 -1.00707,-0.291687 -2.064961,-0.622586 -2.93057,-0.922424 -0.440531,-0.152595 -0.861283,-0.281558 -1.262455,-0.390157 -0.401173,-0.1086 -0.782785,-0.196872 -1.14515,-0.267684 -0.362365,-0.07081 -0.705804,-0.124063 -1.029912,-0.163298 -0.324107,-0.03924 -0.629305,-0.06416 -0.915706,-0.07803 -0.286401,-0.01387 -0.553807,-0.01666 -0.803052,-0.01137 -0.249245,0.0053 -0.480341,0.01845 -0.692981,0.03669 -0.425279,0.03648 -0.777722,0.09264 -1.059883,0.143661 -0.08969,0.01622 -0.169991,0.04595 -0.241329,0.08682 -0.07134,0.04086 -0.133574,0.09313 -0.187586,0.153479 -0.05401,0.06035 -0.09975,0.128935 -0.137459,0.203605 -0.03771,0.07467 -0.06747,0.155425 -0.08992,0.239262 -0.04489,0.167675 -0.06015,0.348541 -0.05013,0.521932 0.01003,0.173391 0.04509,0.339133 0.101802,0.476974 0.07348,0.1786 0.173567,0.391107 0.300241,0.618566 0.126673,0.22746 0.280148,0.469821 0.45992,0.707968 0.08989,0.119073 0.186245,0.237329 0.289388,0.351916 0.103143,0.114587 0.213308,0.225399 0.329695,0.330729 0.116388,0.10533 0.239349,0.204805 0.36897,0.296106 0.129621,0.0913 0.265918,0.174513 0.408761,0.247013 0.243705,0.123694 1.010352,0.448988 2.049487,0.873332 1.039135,0.424345 2.350578,0.947987 3.683496,1.468128 1.332914,0.52014 2.702634,1.083869 3.746542,1.538407 0.521953,0.227269 0.962023,0.427193 1.275891,0.580843 0.313867,0.15365 0.501539,0.260939 0.516764,0.302824 0.05081,0.139647 0.08231,0.262612 0.0925,0.377755 0.01019,0.115143 -0.0014,0.222385 -0.03772,0.329179 -0.03631,0.106793 -0.09734,0.213547 -0.186035,0.328145 -0.08869,0.114598 -0.204957,0.237132 -0.351917,0.375688 -0.293919,0.277112 -0.709969,0.61792 -1.272273,1.087789 -0.562305,0.469868 -1.270937,1.068494 -2.148707,1.860351 -1.78574,1.610961 -3.144403,2.839573 -4.179589,3.78995 -1.035186,0.950377 -1.746858,1.622737 -2.237073,2.121834 -0.245108,0.249548 -0.434982,0.455513 -0.582394,0.631486 -0.147411,0.175973 -0.252214,0.322058 -0.327628,0.450618 -0.07541,0.128561 -0.121264,0.239956 -0.150379,0.347266 -0.02911,0.10731 -0.04161,0.210237 -0.05013,0.322461 0.03063,0.291828 0.04111,0.494461 0.05478,0.645955 0.01367,0.151495 0.03068,0.252066 0.0739,0.340031 0.04321,0.08796 0.112764,0.163343 0.232027,0.264584 0.119263,0.10124 0.288384,0.228292 0.5302,0.419612 0.08734,0.0691 0.179362,0.129062 0.275952,0.179834 0.09659,0.05077 0.197388,0.09216 0.302824,0.125057 0.105436,0.03289 0.215305,0.05688 0.329179,0.07235 0.113874,0.01547 0.232078,0.02269 0.353984,0.02119 0.121905,-0.0015 0.247707,-0.01142 0.377237,-0.02946 0.129531,-0.01803 0.262711,-0.04444 0.399459,-0.07855 0.273496,-0.06821 0.561004,-0.167854 0.86093,-0.297656 0.299925,-0.129802 0.612244,-0.289706 0.935343,-0.477491 0.323099,-0.187785 0.656921,-0.403794 0.999939,-0.645955 0.343018,-0.242161 0.695035,-0.510638 1.054716,-0.803569 0.359681,-0.29293 0.727103,-0.610237 1.100191,-0.950329 l 2.073259,-1.889291 1.044897,1.187008 c 0.28745,0.32656 0.608375,0.642558 0.894002,0.888318 0.142814,0.12288 0.276754,0.228077 0.393258,0.308508 0.116505,0.08043 0.215911,0.136014 0.288871,0.159164 0.07651,0.02428 0.151847,0.06714 0.223243,0.124023 0.07139,0.05688 0.138923,0.128073 0.199471,0.209806 0.06055,0.08173 0.114163,0.174011 0.158129,0.272852 0.04397,0.09884 0.07809,0.203923 0.09974,0.312126 0.02063,0.103185 0.06207,0.222411 0.118856,0.349332 0.05679,0.126922 0.128937,0.261925 0.211873,0.396359 0.08294,0.134433 0.176365,0.268569 0.275436,0.394291 0.09907,0.125721 0.20383,0.242863 0.309025,0.343648 0.174764,0.167434 0.32474,0.297815 0.489892,0.402043 0.08258,0.05211 0.168795,0.09768 0.264067,0.137976 0.09527,0.04029 0.199258,0.07532 0.317293,0.106453 0.236069,0.06226 0.527674,0.108848 0.91519,0.150379 0.387515,0.04153 0.870856,0.07785 1.490348,0.119889 0.745794,0.05061 1.507806,0.130145 2.134237,0.217041 0.313215,0.04345 0.5924,0.08867 0.819071,0.133325 0.226671,0.04466 0.401004,0.08857 0.503329,0.129191 0.139281,0.05529 0.343853,0.117753 0.598929,0.185002 0.255077,0.06725 0.560543,0.139555 0.900204,0.213424 0.679321,0.147736 1.496598,0.303296 2.32699,0.44545 0.830391,0.142155 1.673764,0.270494 2.405538,0.364319 0.365886,0.04691 0.703972,0.08532 0.998388,0.112138 0.294416,0.02682 0.545173,0.04203 0.736906,0.04341 0.323692,0.0023 0.570875,0.0067 0.771012,0.02946 0.100069,0.01138 0.188663,0.02752 0.268718,0.05013 0.08006,0.0226 0.151817,0.052 0.219108,0.0899 0.06729,0.0379 0.129943,0.0843 0.19172,0.14159 0.06178,0.0573 0.122522,0.12587 0.186035,0.20671 0.127025,0.16168 0.264883,0.37403 0.44235,0.65422 0,0 0.145563,-0.10674 0.396358,-0.31057 0.250795,-0.20384 0.606917,-0.50437 1.028878,-0.891436 0.421961,-0.387048 0.90967,-0.860615 1.423169,-1.41025 0.25675,-0.274817 0.519744,-0.568969 0.784448,-0.880566 0.264704,-0.311598 0.531046,-0.640704 0.79375,-0.986503 0.262705,-0.3458 0.521811,-0.708299 0.772563,-1.085722 0.250752,-0.377423 0.493079,-0.769687 0.721919,-1.176156 0.22885,-0.406469 0.44432,-0.826935 0.64131,-1.259871 0.19698,-0.432937 0.37554,-0.878493 0.53071,-1.335319 0.15518,-0.456827 0.28676,-0.924877 0.39016,-1.403015 0.0517,-0.239069 0.0964,-0.48059 0.13333,-0.724504 0.0369,-0.243914 0.066,-0.490537 0.0868,-0.738973 0.0208,-0.248436 0.0337,-0.498739 0.0372,-0.751375 0.004,-0.252636 -0.002,-0.507264 -0.0171,-0.763778 -0.015,-0.256514 -0.0396,-0.515077 -0.0744,-0.775146 -0.0348,-0.26007 -0.0796,-0.521663 -0.13539,-0.784965 -0.0977,0.01868 -0.21806,0.02027 -0.35708,0.0062 -0.13902,-0.01407 -0.29687,-0.044 -0.47026,-0.08785 -0.17339,-0.04385 -0.36193,-0.101931 -0.56276,-0.172599 -0.20082,-0.07067 -0.41377,-0.154037 -0.635101,-0.248564 C 99.371116,85.160388 98.894314,84.926797 98.41127,84.660079 97.928227,84.393361 97.439,84.093997 96.971048,83.773312 96.797091,83.6541 96.540489,83.454292 96.226391,83.195569 95.912293,82.936847 95.540306,82.61919 95.134985,82.263843 94.324343,81.553149 93.380477,80.691975 92.498453,79.852104 90.734395,78.172362 88.529806,76.083651 87.599527,75.210527 87.344186,74.970873 87.100627,74.722078 86.867789,74.463802 86.634952,74.205527 86.413132,73.937705 86.20168,73.658684 85.990228,73.379662 85.788767,73.089828 85.597582,72.787936 85.406398,72.486044 85.225464,72.172244 85.053429,71.845358 84.881395,71.518471 84.718574,71.178237 84.56457,70.824231 84.410567,70.470225 84.264994,70.102122 84.127905,69.718872 83.990815,69.335623 83.862142,68.93718 83.740848,68.522563 83.619554,68.107946 83.505883,67.67721 83.399267,67.229102 c -0.07933,-0.333437 -0.16953,-0.66661 -0.264067,-0.983919 -0.09454,-0.31731 -0.193532,-0.618537 -0.291455,-0.887285 -0.09792,-0.268748 -0.194731,-0.505229 -0.28422,-0.692981 -0.08949,-0.187751 -0.171575,-0.32669 -0.240812,-0.401009 0,0 -0.08155,-0.0717 -0.222209,-0.172599 -0.140661,-0.100901 -0.340387,-0.231279 -0.576192,-0.349333 -0.117903,-0.05903 -0.240191,-0.09399 -0.357084,-0.113171 -0.116894,-0.01918 -0.228655,-0.02254 -0.325562,-0.0186 z"
         style="fill:#ffc28a;fill-opacity:1;stroke:#000000;stroke-width:0.3;stroke-dasharray:none;stroke-opacity:0.62362"
         id="path3" /><path
         d="m 101.83897,85.852261 c 0.0558,0.263302 0.10061,0.524895 0.13539,0.784965 0.0348,0.260069 0.0594,0.518632 0.0744,0.775146 0.015,0.256514 0.0206,0.511142 0.0171,0.763778 -0.004,0.252636 -0.0164,0.502939 -0.0372,0.751375 -0.0208,0.248436 -0.0499,0.495059 -0.0868,0.738973 -0.0369,0.243914 -0.0816,0.485435 -0.13333,0.724504 -0.1034,0.478138 -0.23498,0.946188 -0.39016,1.403015 -0.15517,0.456826 -0.33373,0.902382 -0.53071,1.335319 -0.19699,0.432936 -0.41246,0.853402 -0.64131,1.259871 -0.22884,0.406469 -0.471167,0.798733 -0.721919,1.176156 -0.250752,0.377423 -0.509858,0.739922 -0.772563,1.085722 -0.262704,0.345799 -0.529046,0.674905 -0.79375,0.986503 -0.264704,0.311597 -0.527698,0.605749 -0.784448,0.880566 -0.513499,0.549635 -1.001208,1.023202 -1.423169,1.41025 -0.421961,0.387056 -0.778083,0.687586 -1.028878,0.891426 -0.250795,0.20383 -0.396358,0.31057 -0.396358,0.31057 0.101697,0.16057 0.252042,0.35291 0.441833,0.56896 0.189792,0.21605 0.418915,0.45605 0.679029,0.71262 0.260114,0.25657 0.550848,0.52971 0.863513,0.81184 0.312665,0.28212 0.647326,0.57339 0.994771,0.86609 0.69489,0.5854 1.44148,1.17675 2.16886,1.71463 0.36369,0.26893 0.722999,0.52452 1.068159,0.75912 0.34515,0.2346 0.6761,0.44826 0.98495,0.63356 0.43656,0.26191 0.86251,0.49028 1.19682,0.6475 0.16716,0.0786 0.31138,0.13956 0.42272,0.17777 0.11133,0.0382 0.18997,0.0541 0.22531,0.0424 0.0353,-0.0117 0.1126,-0.13398 0.22221,-0.34468 0.1096,-0.2107 0.25139,-0.5098 0.41547,-0.8754 0.32816,-0.73119 0.74532,-1.72826 1.17254,-2.8143 0.85444,-2.17207 1.67788,-4.246772 1.82935,-4.610572 0.15146,-0.3638 0.39397,-0.959107 0.5395,-1.322917 0.14552,-0.363799 0.38365,-0.959107 0.52917,-1.322916 0.14552,-0.3638 0.35594,-0.899586 0.46715,-1.190625 0.11122,-0.29104 0.38291,-0.945889 0.6041,-1.455209 0.43573,-1.003312 1.07655,-2.597292 1.60817,-3.970817 0.26581,-0.686762 0.50432,-1.318359 0.67644,-1.793689 0.17213,-0.47533 0.27751,-0.794521 0.27751,-0.855762 0,-0.03565 -0.024,-0.06949 -0.0677,-0.100769 -0.0437,-0.03128 -0.10656,-0.0597 -0.18448,-0.08371 -0.15586,-0.04803 -0.37124,-0.07855 -0.60772,-0.0801 -0.23647,-0.0016 -0.87207,-0.08808 -1.70584,-0.226343 -0.83377,-0.138259 -1.86531,-0.328194 -2.89388,-0.536401 -1.02857,-0.208206 -2.03956,-0.38325 -2.83962,-0.497127 -0.40003,-0.05694 -0.74754,-0.09839 -1.01802,-0.12144 -0.27049,-0.02305 -0.4639,-0.02753 -0.55656,-0.0098 z"
         style="fill:#3366cc;fill-opacity:0.701987;stroke:#003399;stroke-width:0.1;stroke-linejoin:round;stroke-opacity:0.62362;paint-order:markers stroke fill"
         id="path5" /></g><path
       style="fill:#ffc28a;fill-opacity:1;stroke:#000000;stroke-width:0.3;stroke-linejoin:round;stroke-dasharray:none;stroke-opacity:0.62362;paint-order:markers stroke fill"
       d="m 52.19753,65.899524 c 0,0 -0.155339,0.595255 0.110495,1.563448 0.265834,0.968193 1.192268,1.574345 1.192268,1.574345"
       id="path8"
       sodipodi:nodetypes="czc" /><path
       style="fill:none;fill-opacity:1;stroke:#000000;stroke-width:0.2;stroke-linejoin:round;stroke-dasharray:none;stroke-opacity:0.62362;paint-order:markers stroke fill"
       d="m 46.074435,96.72815 0.87788,0.01249 c 0,0 1.735238,0.148407 2.123384,0.06849 0.388147,-0.07991 0.970365,-0.11416 1.518335,-0.285401 0.547971,-0.171241 1.210101,-0.342481 1.689577,-0.593635 0.479472,-0.251153 1.175853,-0.410977 1.803736,-1.278599 0.627882,-0.867619 1.03886,-1.290013 1.027443,-2.043472 -0.0114,-0.753459 -0.388144,-1.472671 -0.627883,-1.655328 -0.239736,-0.182655 -0.559385,-0.479473 -0.947531,-0.456642 -0.388146,0.02283 -0.764876,-0.09133 -1.369925,0.205489 -0.605052,0.296817 -1.906482,0.913286 -2.180468,0.970364 -0.273984,0.05708 -0.251153,0.41098 -0.776291,0.479475 -0.525139,0.0685 -1.529752,-0.09133 -1.62108,-0.09133 -0.09133,0 1.438423,-0.02283 1.438423,-0.02283 0,0 0.0685,0 0.159824,-0.251153 0.09133,-0.251153 0.0685,-0.570804 -0.22832,-0.844788 -0.296817,-0.273987 -0.593635,-0.479475 -0.799123,-0.52514"
       id="path11" /><path
       style="fill:none;fill-opacity:1;stroke:#000000;stroke-width:0.2;stroke-linejoin:round;stroke-dasharray:none;stroke-opacity:0.62362;paint-order:markers stroke fill"
       d="m 43.230164,94.061128 0.868138,-0.905134 c 0,0 1.496481,-1.118772 1.735238,-1.255765 0.23876,-0.136994 1.415592,-0.570804 1.643912,-0.890453 0.228322,-0.319648 1.552583,-1.141605 1.917898,-1.461254 0.365313,-0.319651 1.273305,-1.484087 1.273305,-1.484087"
       id="path12" /><path
       style="fill:none;fill-opacity:1;stroke:#000000;stroke-width:0.2;stroke-linejoin:round;stroke-dasharray:none;stroke-opacity:0.62362;paint-order:markers stroke fill"
       d="m 49.433408,99.803415 c 0,0 1.986656,-0.06102 3.019917,-0.416203 1.033264,-0.355185 1.598329,-0.468196 2.276409,-1.097841 0.678079,-0.629645 1.432615,-0.823383 1.598329,-1.56604 0.165714,-0.742658 0.27446,-1.226999 -0.08072,-1.80821 -0.355185,-0.58121 -0.37133,-0.628509 -0.823381,-0.750162 -0.452054,-0.121656 -0.92025,0 -0.92025,0 h -0.04843"
       id="path13" /><path
       style="fill:none;fill-opacity:1;stroke:#000000;stroke-width:0.2;stroke-linejoin:round;stroke-dasharray:none;stroke-opacity:0.62362;paint-order:markers stroke fill"
       d="m 53.539376,90.496053 c 0,0 -0.650142,0.399029 -0.860023,0.81879 -0.209883,0.419765 -0.54892,1.065554 -0.193738,1.56604 0.355184,0.500489 0.516633,0.745466 0.984829,0.745466 0.468199,0 0.644869,-0.08895 1.081699,-0.212688 0.436827,-0.123735 0.521687,-1.218795 0.521687,-1.218795"
       id="path14" /><path
       style="fill:none;fill-opacity:1;stroke:#000000;stroke-width:0.2;stroke-linejoin:round;stroke-dasharray:none;stroke-opacity:0.62362;paint-order:markers stroke fill"
       d="m 54.479496,94.164959 c 0,0 -0.734592,0.750162 -0.573143,1.428239 0.161446,0.67808 0.209881,1.307724 0.661935,1.275435 0.452051,-0.03229 0.650772,0.139181 1.243142,-0.177591 0.592373,-0.316773 0.644983,-0.613656 0.644983,-0.613656"
       id="path15" /><path
       style="fill:none;fill-opacity:1;stroke:#000000;stroke-width:0.2;stroke-linejoin:round;stroke-dasharray:none;stroke-opacity:0.62362;paint-order:markers stroke fill"
       d="m 52.18181,84.210739 c 0,0 0.827278,2.916713 1.934424,4.537093 1.107146,1.62038 1.679054,3.12927 3.099789,4.003895 1.420736,0.874622 4.455946,1.77592 5.263185,1.905076"
       id="path16" /><path
       style="fill:#00cc00;fill-opacity:1;stroke:#00cc00;stroke-width:0.7;stroke-linejoin:round;stroke-dasharray:none;stroke-opacity:0.62362;marker-end:url(#Triangle);paint-order:markers stroke fill"
       d="M 52.18181,84.210739 28.503975,103.15453"
       id="path17"
       sodipodi:nodetypes="cc" /><path
       style="fill:#cc0000;fill-opacity:1;stroke:#ff1313;stroke-width:0.2;stroke-linejoin:round;stroke-dasharray:none;stroke-opacity:0.62362;marker-end:url(#Triangle-8);paint-order:markers stroke fill"
       d="m 27.112947,70.005089 3.200512,-0.0223"
       id="path17-9"
       sodipodi:nodetypes="cc" /><path
       style="fill:#00cc00;fill-opacity:1;stroke:#00cc00;stroke-width:0.2;stroke-linejoin:round;stroke-dasharray:none;stroke-opacity:0.62362;marker-end:url(#Triangle-8-2);paint-order:markers stroke fill"
       d="m 33.267248,102.4767 3.200512,-0.0223"
       id="path17-9-9"
       sodipodi:nodetypes="cc" /><path
       style="fill:#003399;fill-opacity:1;stroke:#003399;stroke-width:0.2;stroke-linejoin:round;stroke-dasharray:none;stroke-opacity:0.62362;marker-end:url(#Triangle-8-7);paint-order:markers stroke fill"
       d="m 56.14851,57.81972 3.200512,-0.0223"
       id="path17-9-1"
       sodipodi:nodetypes="cc" /><path
       style="fill:#003399;fill-opacity:1;stroke:#003399;stroke-width:0.2;stroke-linejoin:round;stroke-dasharray:none;stroke-opacity:0.62362;marker-end:url(#Triangle-8-7-5);paint-order:markers stroke fill"
       d="m 62.432236,57.81972 3.200512,-0.0223"
       id="path17-9-1-5"
       sodipodi:nodetypes="cc" /><path
       style="fill:#003399;fill-opacity:1;stroke:#003399;stroke-width:0.7;stroke-linejoin:round;stroke-dasharray:none;stroke-opacity:0.62362;marker-end:url(#marker19);paint-order:markers stroke fill"
       d="M 52.18181,84.210739 51.670873,59.318817"
       id="path18" /><path
       style="fill:#0dcc00;fill-opacity:1;stroke:#cc0000;stroke-width:0.7;stroke-linejoin:round;stroke-dasharray:none;stroke-opacity:0.62362;marker-end:url(#marker21);paint-order:markers stroke fill"
       d="M 52.18181,84.210739 23.389583,74.270546"
       id="path20"
       sodipodi:nodetypes="cc" /><text
       xml:space="preserve"
       style="font-size:4.9389px;font-family:'Times New Roman';-inkscape-font-specification:'Times New Roman, ';fill:#003399;fill-opacity:1;stroke:none;stroke-width:0.7;stroke-linejoin:round;stroke-dasharray:none;stroke-opacity:0.62362;paint-order:markers stroke fill"
       x="55.94817"
       y="61.921677"
       id="text21"><tspan
         sodipodi:role="line"
         id="tspan21"
         style="stroke:none;stroke-width:0.7;fill:#003399"
         x="55.94817"
         y="61.921677">A   B</tspan></text><text
       xml:space="preserve"
       style="font-size:4.9389px;font-family:'Times New Roman';-inkscape-font-specification:'Times New Roman, ';fill:#00cc00;fill-opacity:1;stroke:none;stroke-width:0.7;stroke-linejoin:round;stroke-dasharray:none;stroke-opacity:0.62362;paint-order:markers stroke fill"
       x="33.435711"
       y="106.34249"
       id="text22"><tspan
         sodipodi:role="line"
         id="tspan22"
         style="fill:#00cc00;stroke-width:0.7"
         x="33.435711"
         y="106.34249">B</tspan></text><text
       xml:space="preserve"
       style="font-size:4.9389px;font-family:'Times New Roman';-inkscape-font-specification:'Times New Roman, ';fill:#cc0000;fill-opacity:1;stroke:none;stroke-width:0.7;stroke-linejoin:round;stroke-dasharray:none;stroke-opacity:0.62362;paint-order:markers stroke fill"
       x="27.074015"
       y="73.903572"
       id="text23"><tspan
         sodipodi:role="line"
         id="tspan23"
         style="fill:#cc0000;stroke:none;stroke-width:0.7;stroke-opacity:0.62362"
         x="27.074015"
         y="73.903572">A </tspan></text><text
       xml:space="preserve"
       style="font-size:4.9389px;font-family:'Times New Roman';-inkscape-font-specification:'Times New Roman, ';fill:#003399;fill-opacity:1;stroke:none;stroke-width:0.7;stroke-linejoin:round;stroke-dasharray:none;stroke-opacity:0.62362;paint-order:markers stroke fill"
       x="59.96999"
       y="62.981819"
       id="text24"><tspan
         sodipodi:role="line"
         id="tspan24"
         style="stroke-width:0.7;fill:#003399"
         x="59.96999"
         y="62.981819">^</tspan></text></g></svg>
