<?xml version="1.0" encoding="UTF-8" standalone="no"?>
<!-- Created with Inkscape (http://www.inkscape.org/) -->

<svg
   width="64.144203mm"
   height="32.713066mm"
   viewBox="0 0 64.144203 32.713066"
   version="1.1"
   id="svg1"
   inkscape:version="1.4 (86a8ad7, 2024-10-11)"
   sodipodi:docname="wrench.svg"
   xml:space="preserve"
   xmlns:inkscape="http://www.inkscape.org/namespaces/inkscape"
   xmlns:sodipodi="http://sodipodi.sourceforge.net/DTD/sodipodi-0.dtd"
   xmlns="http://www.w3.org/2000/svg"
   xmlns:svg="http://www.w3.org/2000/svg"><sodipodi:namedview
     id="namedview1"
     pagecolor="#ffffff"
     bordercolor="#666666"
     borderopacity="1.0"
     inkscape:showpageshadow="2"
     inkscape:pageopacity="0.0"
     inkscape:pagecheckerboard="0"
     inkscape:deskcolor="#d1d1d1"
     inkscape:document-units="mm"
     showguides="false"
     inkscape:zoom="2.0208096"
     inkscape:cx="185.56919"
     inkscape:cy="22.515728"
     inkscape:window-width="1920"
     inkscape:window-height="991"
     inkscape:window-x="-9"
     inkscape:window-y="-9"
     inkscape:window-maximized="1"
     inkscape:current-layer="layer1" /><defs
     id="defs1"><marker
       style="overflow:visible"
       id="ConcaveTriangle"
       refX="0"
       refY="0"
       orient="auto-start-reverse"
       inkscape:stockid="Concave triangle arrow"
       markerWidth="1"
       markerHeight="1"
       viewBox="0 0 1 1"
       inkscape:isstock="true"
       inkscape:collect="always"
       preserveAspectRatio="xMidYMid"><path
         transform="scale(0.7)"
         d="M -2,-4 9,0 -2,4 c 2,-2.33 2,-5.66 0,-8 z"
         style="fill:context-stroke;fill-rule:evenodd;stroke:none"
         id="path8" /></marker><marker
       style="overflow:visible"
       id="marker4"
       refX="0"
       refY="0"
       orient="auto-start-reverse"
       inkscape:stockid="Concave triangle arrow"
       markerWidth="1"
       markerHeight="1"
       viewBox="0 0 1 1"
       inkscape:isstock="true"
       inkscape:collect="always"
       preserveAspectRatio="xMidYMid"><path
         transform="scale(0.7)"
         d="M -2,-4 9,0 -2,4 c 2,-2.33 2,-5.66 0,-8 z"
         style="fill:context-stroke;fill-rule:evenodd;stroke:none"
         id="path4" /></marker><marker
       style="overflow:visible"
       id="ConcaveTriangle-6"
       refX="0"
       refY="0"
       orient="auto-start-reverse"
       inkscape:stockid="Concave triangle arrow"
       markerWidth="1"
       markerHeight="1"
       viewBox="0 0 1 1"
       inkscape:isstock="true"
       inkscape:collect="always"
       preserveAspectRatio="xMidYMid"><path
         transform="scale(0.7)"
         d="M -2,-4 9,0 -2,4 c 2,-2.33 2,-5.66 0,-8 z"
         style="fill:context-stroke;fill-rule:evenodd;stroke:none"
         id="path8-1" /></marker></defs><g
     inkscape:label="Calque 1"
     inkscape:groupmode="layer"
     id="layer1"
     transform="translate(-21.008686,-36.986954)"><circle
       style="fill:#000000;stroke-width:0.264583"
       id="path2"
       cx="32.27409"
       cy="57.347065"
       r="1" /><path
       style="fill:none;stroke:#003399;stroke-width:1.06285;stroke-linejoin:bevel;stroke-dasharray:none;stroke-opacity:1;marker-start:url(#marker4)"
       id="path3"
       sodipodi:type="arc"
       sodipodi:cx="-48.214268"
       sodipodi:cy="-45.786343"
       sodipodi:rx="11.428461"
       sodipodi:ry="11.428461"
       sodipodi:start="0"
       sodipodi:end="4.2354801"
       sodipodi:arc-type="arc"
       d="m -36.785807,-45.786343 a 11.428461,11.428461 0 0 1 -9.619325,11.284359 11.428461,11.428461 0 0 1 -12.664821,-7.71171 11.428461,11.428461 0 0 1 5.60962,-13.7259"
       sodipodi:open="true"
       transform="matrix(0.23845108,-0.97115451,-0.97115451,-0.23845108,0,0)"
       inkscape:transform-center-x="0.59905518"
       inkscape:transform-center-y="0.60850782" /><text
       xml:space="preserve"
       style="font-size:6.35px;line-height:1.25;font-family:sans-serif;stroke-width:0.264583"
       x="26.185873"
       y="59.965649"
       id="text4"><tspan
         sodipodi:role="line"
         id="tspan4"
         style="font-style:italic;font-size:6.35px;stroke-width:0.264583"
         x="26.185873"
         y="59.965649">A</tspan></text><text
       xml:space="preserve"
       style="font-size:6.35px;line-height:1.25;font-family:sans-serif;fill:#cc0000;stroke:none;stroke-width:0.264583"
       x="74.087341"
       y="60.222092"
       id="text4-5-2"><tspan
         sodipodi:role="line"
         id="tspan4-5-16"
         style="font-style:italic;font-size:6.35px;fill:#cc0000;stroke:none;stroke-width:0.264583"
         x="74.087341"
         y="60.222092">F</tspan><tspan
         sodipodi:role="line"
         style="font-style:italic;font-size:6.35px;fill:#cc0000;stroke:none;stroke-width:0.264583"
         x="74.087341"
         y="68.159592"
         id="tspan9-8" /></text><text
       xml:space="preserve"
       style="font-size:6.35px;line-height:1.25;font-family:sans-serif;stroke-width:0.264583"
       x="80.548515"
       y="41.791618"
       id="text4-5-6"><tspan
         sodipodi:role="line"
         id="tspan4-5-1"
         style="font-style:italic;font-size:6.35px;stroke-width:0.264583"
         x="80.548515"
         y="41.791618">H</tspan><tspan
         sodipodi:role="line"
         style="font-style:italic;font-size:6.35px;stroke-width:0.264583"
         x="80.548515"
         y="49.729118"
         id="tspan9-4" /></text><path
       style="fill:none;stroke:#cc0000;stroke-width:0.465;stroke-linecap:butt;stroke-linejoin:miter;stroke-dasharray:none;stroke-opacity:1;marker-end:url(#ConcaveTriangle)"
       d="M 76.194202,40.154984 82.400518,54.61211"
       id="path7"
       sodipodi:nodetypes="cc" /><path
       style="fill:none;stroke:#cc0000;stroke-width:0.165;stroke-linecap:butt;stroke-linejoin:miter;stroke-dasharray:none;stroke-opacity:1;marker-end:url(#ConcaveTriangle-6)"
       d="m 74.373906,54.556617 3.53863,0.0058"
       id="path7-9"
       sodipodi:nodetypes="cc" /><circle
       style="fill:#000000;stroke-width:0.264583"
       id="path2-8-1"
       cx="76.043434"
       cy="40.231895"
       r="1" /><path
       d="m 30.630245,59.611365 c 0.08694,-0.28586 0.659849,-0.467997 1.770608,-0.56807 0.961062,-0.08459 1.316965,-0.144076 1.715237,-0.280555 0.40598,-0.142167 0.727537,-0.414691 0.893752,-0.758322 0.202378,-0.422979 0.203452,-1.167267 10e-4,-1.804449 -0.18608,-0.589612 -0.60659,-1.009769 -1.12788,-1.123466 -0.316869,-0.07046 -0.431322,-0.06226 -1.207924,0.101067 -1.277441,0.265975 -1.954601,0.313673 -2.296565,0.164716 -0.259499,-0.114169 -0.288778,-0.304604 -0.101267,-0.652179 0.275664,-0.505446 0.887642,-1.022676 1.791527,-1.513401 0.352858,-0.19166 1.203432,-0.561311 1.578863,-0.685783 1.380254,-0.459609 2.575358,-0.52072 3.646856,-0.189244 0.394141,0.122259 0.562952,0.160568 0.925797,0.20197 0.645832,0.07658 1.330695,0.02318 2.001699,-0.157864 0.09644,-0.02539 6.619536,-2.689582 16.284575,-6.65204 l 16.123851,-6.609708 0.07847,-0.09946 c 0.804676,-1.030076 1.817432,-1.746611 2.722972,-1.93159 1.172361,-0.236969 2.535716,0.177877 3.343949,1.019512 0.795231,0.829737 0.99634,2.102577 0.51379,3.277534 -0.45804,1.115305 -1.384083,1.847567 -2.667728,2.111184 -0.637499,0.129997 -1.370447,0.156497 -2.115304,0.07675 l -0.232817,-0.02645 -16.524891,6.608952 c -10.189665,4.075026 -16.597747,6.646756 -16.711977,6.706761 -0.371087,0.196804 -0.758661,0.516629 -1.160828,0.96364 -0.305182,0.337354 -0.581161,0.699602 -1.11409,1.460635 -0.504317,0.721914 -0.673508,0.95065 -0.840764,1.12668 -0.164157,0.177216 -0.399373,0.379122 -0.582357,0.497461 -0.211667,0.140184 -0.69598,0.342213 -1.011878,0.422091 -0.554825,0.142472 -0.878596,0.119366 -2.05474,-0.153628 -0.315641,-0.07346 -0.793899,-0.182852 -1.060594,-0.24459 C 32.576943,60.756514 31.84762,60.551667 31.53579,60.429677 30.922363,60.191314 30.553905,59.858179 30.630185,59.611361 Z M 73.975652,41.6416 c 0.61073,0.825171 1.692047,1.206919 2.711168,0.954793 0.259023,-0.06358 0.724097,-0.279817 0.929204,-0.43455 0.232562,-0.173614 0.546596,-0.536915 0.688102,-0.798577 0.263707,-0.480688 0.356711,-1.077982 0.248271,-1.603601 -0.04712,-0.229944 -0.206349,-0.62317 -0.333463,-0.819743 -0.437436,-0.679988 -1.22072,-1.124272 -2.045213,-1.158449 -1.438534,-0.05728 -2.623043,1.007686 -2.665863,2.394604 -0.0065,0.207834 0.02805,0.472658 0.08973,0.706408 0.04905,0.177241 0.254556,0.593174 0.378049,0.75913 z"
       id="path1"
       style="fill:#000000;stroke:none;stroke-width:0.00231153" /></g></svg>
